{
    "asset" : {
        "generator" : "Khronos glTF Blender I/O v1.7.33",
        "version" : "2.0"
    },
    "scene" : 0,
    "scenes" : [
        {
            "name" : "Scene",
            "nodes" : [
                0,
                1,
                2,
                3,
                4,
                5,
                6,
                7
            ]
        }
    ],
    "nodes" : [
        {
            "mesh" : 0,
            "name" : "Cube"
        },
        {
            "mesh" : 1,
            "name" : "\u30d9\u30b8\u30a8\u30ab\u30fc\u30d6",
            "rotation" : [
                0,
                0,
                -0.7071067690849304,
                0.7071068286895752
            ],
            "translation" : [
                0.3451637625694275,
                0,
                0
            ]
        },
        {
            "mesh" : 2,
            "name" : "\u5e73\u9762",
            "rotation" : [
                0.03307608515024185,
                0.03307608515024185,
                -0.7063327431678772,
                0.706332802772522
            ],
            "scale" : [
                0.349418044090271,
                0.349418044090271,
                0.349418044090271
            ],
            "translation" : [
                -0.4072362184524536,
                -0.43039560317993164,
                -1.018298864364624
            ]
        },
        {
            "mesh" : 3,
            "name" : "\u5e73\u9762.001",
            "rotation" : [
                -0.009784906171262264,
                -0.009784906171262264,
                -0.7070390582084656,
                0.7070391178131104
            ],
            "scale" : [
                0.349418044090271,
                0.349418044090271,
                0.349418044090271
            ],
            "translation" : [
                -0.4072362184524536,
                -0.6470215320587158,
                -0.9696637392044067
            ]
        },
        {
            "mesh" : 4,
            "name" : "\u5e73\u9762.002",
            "rotation" : [
                -0.04256434366106987,
                -0.04256434366106987,
                -0.7058244943618774,
                0.7058245539665222
            ],
            "scale" : [
                0.349418044090271,
                0.349418044090271,
                0.349418044090271
            ],
            "translation" : [
                -0.4072362184524536,
                -0.8628401756286621,
                -0.9423064589500427
            ]
        },
        {
            "mesh" : 5,
            "name" : "\u5e73\u9762.003",
            "rotation" : [
                -0.017982224002480507,
                -0.03965078294277191,
                -0.70916748046875,
                0.7036944627761841
            ],
            "scale" : [
                0.349418044090271,
                0.349418044090271,
                0.349418044090271
            ],
            "translation" : [
                -0.4072362184524536,
                -0.43039560317993164,
                0.7385419607162476
            ]
        },
        {
            "mesh" : 6,
            "name" : "\u5e73\u9762.004",
            "rotation" : [
                0.021228913217782974,
                -0.00010138271318282932,
                -0.7102751135826111,
                0.703603982925415
            ],
            "scale" : [
                0.349418044090271,
                0.349418044090271,
                0.349418044090271
            ],
            "translation" : [
                -0.4072362184524536,
                -0.6279075145721436,
                0.7385419607162476
            ]
        },
        {
            "mesh" : 7,
            "name" : "\u5e73\u9762.005",
            "rotation" : [
                0.04046911373734474,
                0.019329363480210304,
                -0.7100120782852173,
                0.7027599811553955
            ],
            "scale" : [
                0.349418044090271,
                0.349418044090271,
                0.349418044090271
            ],
            "translation" : [
                -0.4072362184524536,
                -0.8029942512512207,
                0.734894335269928
            ]
        }
    ],
    "materials" : [
        {
            "doubleSided" : true,
            "name" : "Material",
            "pbrMetallicRoughness" : {
                "baseColorFactor" : [
                    0.8883659243583679,
                    0.9559229016304016,
                    1,
                    1
                ],
                "metallicFactor" : 0,
                "roughnessFactor" : 0.4000000059604645
            }
        },
        {
            "doubleSided" : true,
            "name" : "\u30de\u30c6\u30ea\u30a2\u30eb",
            "pbrMetallicRoughness" : {
                "baseColorFactor" : [
                    0,
                    0,
                    0,
                    1
                ],
                "metallicFactor" : 0,
                "roughnessFactor" : 0.5
            }
        },
        {
            "doubleSided" : true,
            "name" : "\u30de\u30c6\u30ea\u30a2\u30eb.001",
            "pbrMetallicRoughness" : {
                "baseColorFactor" : [
                    0,
                    0,
                    0,
                    1
                ],
                "metallicFactor" : 0,
                "roughnessFactor" : 0.5
            }
        },
        {
            "doubleSided" : true,
            "name" : "\u30de\u30c6\u30ea\u30a2\u30eb.002",
            "pbrMetallicRoughness" : {
                "baseColorFactor" : [
                    0,
                    0,
                    0,
                    1
                ],
                "metallicFactor" : 0,
                "roughnessFactor" : 0.5
            }
        },
        {
            "doubleSided" : true,
            "name" : "\u30de\u30c6\u30ea\u30a2\u30eb.003",
            "pbrMetallicRoughness" : {
                "baseColorFactor" : [
                    0,
                    0,
                    0,
                    1
                ],
                "metallicFactor" : 0,
                "roughnessFactor" : 0.5
            }
        },
        {
            "doubleSided" : true,
            "name" : "\u30de\u30c6\u30ea\u30a2\u30eb.004",
            "pbrMetallicRoughness" : {
                "baseColorFactor" : [
                    0,
                    0,
                    0,
                    1
                ],
                "metallicFactor" : 0,
                "roughnessFactor" : 0.5
            }
        },
        {
            "doubleSided" : true,
            "name" : "\u30de\u30c6\u30ea\u30a2\u30eb.005",
            "pbrMetallicRoughness" : {
                "baseColorFactor" : [
                    0,
                    0,
                    0,
                    1
                ],
                "metallicFactor" : 0,
                "roughnessFactor" : 0.5
            }
        }
    ],
    "meshes" : [
        {
            "name" : "Cube",
            "primitives" : [
                {
                    "attributes" : {
                        "POSITION" : 0,
                        "NORMAL" : 1,
                        "TEXCOORD_0" : 2
                    },
                    "indices" : 3,
                    "material" : 0
                },
                {
                    "attributes" : {
                        "POSITION" : 4,
                        "NORMAL" : 5,
                        "TEXCOORD_0" : 6
                    },
                    "indices" : 7,
                    "material" : 1
                }
            ]
        },
        {
            "name" : "Mesh",
            "primitives" : [
                {
                    "attributes" : {
                        "POSITION" : 8,
                        "NORMAL" : 9
                    },
                    "indices" : 10,
                    "material" : 2
                }
            ]
        },
        {
            "name" : "\u5e73\u9762",
            "primitives" : [
                {
                    "attributes" : {
                        "POSITION" : 11,
                        "NORMAL" : 12,
                        "TEXCOORD_0" : 13
                    },
                    "indices" : 14,
                    "material" : 3
                }
            ]
        },
        {
            "name" : "\u5e73\u9762.001",
            "primitives" : [
                {
                    "attributes" : {
                        "POSITION" : 15,
                        "NORMAL" : 16,
                        "TEXCOORD_0" : 17
                    },
                    "indices" : 14,
                    "material" : 2
                }
            ]
        },
        {
            "name" : "\u5e73\u9762.002",
            "primitives" : [
                {
                    "attributes" : {
                        "POSITION" : 18,
                        "NORMAL" : 19,
                        "TEXCOORD_0" : 20
                    },
                    "indices" : 14,
                    "material" : 1
                }
            ]
        },
        {
            "name" : "\u5e73\u9762.003",
            "primitives" : [
                {
                    "attributes" : {
                        "POSITION" : 21,
                        "NORMAL" : 22,
                        "TEXCOORD_0" : 23
                    },
                    "indices" : 14,
                    "material" : 4
                }
            ]
        },
        {
            "name" : "\u5e73\u9762.004",
            "primitives" : [
                {
                    "attributes" : {
                        "POSITION" : 24,
                        "NORMAL" : 25,
                        "TEXCOORD_0" : 26
                    },
                    "indices" : 14,
                    "material" : 5
                }
            ]
        },
        {
            "name" : "\u5e73\u9762.005",
            "primitives" : [
                {
                    "attributes" : {
                        "POSITION" : 27,
                        "NORMAL" : 28,
                        "TEXCOORD_0" : 29
                    },
                    "indices" : 14,
                    "material" : 6
                }
            ]
        }
    ],
    "accessors" : [
        {
            "bufferView" : 0,
            "componentType" : 5126,
            "count" : 56,
            "max" : [
                0.3434259295463562,
                2.1468164920806885,
                1
            ],
            "min" : [
                -0.312785804271698,
                -1,
                -1
            ],
            "type" : "VEC3"
        },
        {
            "bufferView" : 1,
            "componentType" : 5126,
            "count" : 56,
            "type" : "VEC3"
        },
        {
            "bufferView" : 2,
            "componentType" : 5126,
            "count" : 56,
            "type" : "VEC2"
        },
        {
            "bufferView" : 3,
            "componentType" : 5123,
            "count" : 108,
            "type" : "SCALAR"
        },
        {
            "bufferView" : 4,
            "componentType" : 5126,
            "count" : 48,
            "max" : [
                0.3695119023323059,
                0.5141271352767944,
                0.41463756561279297
            ],
            "min" : [
                0.26565563678741455,
                0.24833020567893982,
                -0.41463756561279297
            ],
            "type" : "VEC3"
        },
        {
            "bufferView" : 5,
            "componentType" : 5126,
            "count" : 48,
            "type" : "VEC3"
        },
        {
            "bufferView" : 6,
            "componentType" : 5126,
            "count" : 48,
            "type" : "VEC2"
        },
        {
            "bufferView" : 7,
            "componentType" : 5123,
            "count" : 72,
            "type" : "SCALAR"
        },
        {
            "bufferView" : 8,
            "componentType" : 5126,
            "count" : 784,
            "max" : [
                0.4476400911808014,
                0.026430727913975716,
                0.44888338446617126
            ],
            "min" : [
                0.11429718136787415,
                -0.026430735364556313,
                -0.44888338446617126
            ],
            "type" : "VEC3"
        },
        {
            "bufferView" : 9,
            "componentType" : 5126,
            "count" : 784,
            "type" : "VEC3"
        },
        {
            "bufferView" : 10,
            "componentType" : 5123,
            "count" : 1176,
            "type" : "SCALAR"
        },
        {
            "bufferView" : 11,
            "componentType" : 5126,
            "count" : 24,
            "max" : [
                -0.7833580374717712,
                2.189492702484131,
                1
            ],
            "min" : [
                -0.9999998211860657,
                0.2455751895904541,
                -0.47824835777282715
            ],
            "type" : "VEC3"
        },
        {
            "bufferView" : 12,
            "componentType" : 5126,
            "count" : 24,
            "type" : "VEC3"
        },
        {
            "bufferView" : 13,
            "componentType" : 5126,
            "count" : 24,
            "type" : "VEC2"
        },
        {
            "bufferView" : 14,
            "componentType" : 5123,
            "count" : 36,
            "type" : "SCALAR"
        },
        {
            "bufferView" : 15,
            "componentType" : 5126,
            "count" : 24,
            "max" : [
                -0.7833580374717712,
                2.189492702484131,
                1
            ],
            "min" : [
                -0.9999998211860657,
                0.2455751895904541,
                -0.47824835777282715
            ],
            "type" : "VEC3"
        },
        {
            "bufferView" : 16,
            "componentType" : 5126,
            "count" : 24,
            "type" : "VEC3"
        },
        {
            "bufferView" : 17,
            "componentType" : 5126,
            "count" : 24,
            "type" : "VEC2"
        },
        {
            "bufferView" : 18,
            "componentType" : 5126,
            "count" : 24,
            "max" : [
                -0.7833580374717712,
                2.189492702484131,
                1
            ],
            "min" : [
                -0.9999998211860657,
                0.2455751895904541,
                -0.47824835777282715
            ],
            "type" : "VEC3"
        },
        {
            "bufferView" : 19,
            "componentType" : 5126,
            "count" : 24,
            "type" : "VEC3"
        },
        {
            "bufferView" : 20,
            "componentType" : 5126,
            "count" : 24,
            "type" : "VEC2"
        },
        {
            "bufferView" : 21,
            "componentType" : 5126,
            "count" : 24,
            "max" : [
                -0.7833580374717712,
                2.189492702484131,
                1
            ],
            "min" : [
                -0.9999998211860657,
                0.2455751895904541,
                -0.47824835777282715
            ],
            "type" : "VEC3"
        },
        {
            "bufferView" : 22,
            "componentType" : 5126,
            "count" : 24,
            "type" : "VEC3"
        },
        {
            "bufferView" : 23,
            "componentType" : 5126,
            "count" : 24,
            "type" : "VEC2"
        },
        {
            "bufferView" : 24,
            "componentType" : 5126,
            "count" : 24,
            "max" : [
                -0.7833580374717712,
                2.189492702484131,
                1
            ],
            "min" : [
                -0.9999998211860657,
                0.2455751895904541,
                -0.47824835777282715
            ],
            "type" : "VEC3"
        },
        {
            "bufferView" : 25,
            "componentType" : 5126,
            "count" : 24,
            "type" : "VEC3"
        },
        {
            "bufferView" : 26,
            "componentType" : 5126,
            "count" : 24,
            "type" : "VEC2"
        },
        {
            "bufferView" : 27,
            "componentType" : 5126,
            "count" : 24,
            "max" : [
                -0.7833580374717712,
                2.189492702484131,
                1
            ],
            "min" : [
                -0.9999998211860657,
                0.2455751895904541,
                -0.47824835777282715
            ],
            "type" : "VEC3"
        },
        {
            "bufferView" : 28,
            "componentType" : 5126,
            "count" : 24,
            "type" : "VEC3"
        },
        {
            "bufferView" : 29,
            "componentType" : 5126,
            "count" : 24,
            "type" : "VEC2"
        }
    ],
    "bufferViews" : [
        {
            "buffer" : 0,
            "byteLength" : 672,
            "byteOffset" : 0
        },
        {
            "buffer" : 0,
            "byteLength" : 672,
            "byteOffset" : 672
        },
        {
            "buffer" : 0,
            "byteLength" : 448,
            "byteOffset" : 1344
        },
        {
            "buffer" : 0,
            "byteLength" : 216,
            "byteOffset" : 1792
        },
        {
            "buffer" : 0,
            "byteLength" : 576,
            "byteOffset" : 2008
        },
        {
            "buffer" : 0,
            "byteLength" : 576,
            "byteOffset" : 2584
        },
        {
            "buffer" : 0,
            "byteLength" : 384,
            "byteOffset" : 3160
        },
        {
            "buffer" : 0,
            "byteLength" : 144,
            "byteOffset" : 3544
        },
        {
            "buffer" : 0,
            "byteLength" : 9408,
            "byteOffset" : 3688
        },
        {
            "buffer" : 0,
            "byteLength" : 9408,
            "byteOffset" : 13096
        },
        {
            "buffer" : 0,
            "byteLength" : 2352,
            "byteOffset" : 22504
        },
        {
            "buffer" : 0,
            "byteLength" : 288,
            "byteOffset" : 24856
        },
        {
            "buffer" : 0,
            "byteLength" : 288,
            "byteOffset" : 25144
        },
        {
            "buffer" : 0,
            "byteLength" : 192,
            "byteOffset" : 25432
        },
        {
            "buffer" : 0,
            "byteLength" : 72,
            "byteOffset" : 25624
        },
        {
            "buffer" : 0,
            "byteLength" : 288,
            "byteOffset" : 25696
        },
        {
            "buffer" : 0,
            "byteLength" : 288,
            "byteOffset" : 25984
        },
        {
            "buffer" : 0,
            "byteLength" : 192,
            "byteOffset" : 26272
        },
        {
            "buffer" : 0,
            "byteLength" : 288,
            "byteOffset" : 26464
        },
        {
            "buffer" : 0,
            "byteLength" : 288,
            "byteOffset" : 26752
        },
        {
            "buffer" : 0,
            "byteLength" : 192,
            "byteOffset" : 27040
        },
        {
            "buffer" : 0,
            "byteLength" : 288,
            "byteOffset" : 27232
        },
        {
            "buffer" : 0,
            "byteLength" : 288,
            "byteOffset" : 27520
        },
        {
            "buffer" : 0,
            "byteLength" : 192,
            "byteOffset" : 27808
        },
        {
            "buffer" : 0,
            "byteLength" : 288,
            "byteOffset" : 28000
        },
        {
            "buffer" : 0,
            "byteLength" : 288,
            "byteOffset" : 28288
        },
        {
            "buffer" : 0,
            "byteLength" : 192,
            "byteOffset" : 28576
        },
        {
            "buffer" : 0,
            "byteLength" : 288,
            "byteOffset" : 28768
        },
        {
            "buffer" : 0,
            "byteLength" : 288,
            "byteOffset" : 29056
        },
        {
            "buffer" : 0,
            "byteLength" : 192,
            "byteOffset" : 29344
        }
    ],
    "buffers" : [
        {
            "byteLength" : 29536,
            "uri" : "data:application/octet-stream;base64,"
        }
    ]
}
